<svg width="36" height="36" viewBox="0 0 36 36" fill="none" xmlns="http://www.w3.org/2000/svg">
<path d="M25.465 29.25C29.1025 26.8314 31.5 22.6958 31.5 18C31.5 10.5442 25.4559 4.5 18 4.5C16.9689 4.5 15.9648 4.61559 15 4.83453M25.465 29.25V24M25.465 29.25H30.75M10.5 6.77333C6.88205 9.19511 4.5 13.3194 4.5 18C4.5 25.4559 10.5442 31.5 18 31.5C19.0311 31.5 20.0352 31.3844 21 31.1655M10.5 6.77333V12M10.5 6.77333H5.25" stroke="#C8CEC8" stroke-width="1.5" stroke-linecap="round" stroke-linejoin="round"/>
<path d="M15.6562 22.0001V14M18 14V12M18 24V22.0001M15.6562 18H20.3438M20.3438 18C21.1204 18 21.75 18.6716 21.75 19.5V20.5001C21.75 21.3285 21.1204 22.0001 20.3438 22.0001H14.25M20.3438 18C21.1204 18 21.75 17.3284 21.75 16.5V15.4999C21.75 14.6716 21.1204 14 20.3438 14H14.25" stroke="#C8CEC8" stroke-width="1.5" stroke-linecap="round" stroke-linejoin="round"/>
</svg>
