<svg width="36" height="36" viewBox="0 0 36 36" fill="none" xmlns="http://www.w3.org/2000/svg">
<path d="M20.5354 29.185C20.25 28.4959 20.25 27.6223 20.25 25.875C20.25 24.1277 20.25 23.254 20.5354 22.5649C20.916 21.646 21.646 20.916 22.5649 20.5354C23.254 20.25 24.1277 20.25 25.875 20.25C27.6223 20.25 28.4959 20.25 29.185 20.5354C30.1039 20.916 30.834 21.646 31.2146 22.5649C31.5 23.254 31.5 24.1277 31.5 25.875C31.5 27.6223 31.5 28.4959 31.2146 29.185C30.834 30.1039 30.1039 30.834 29.185 31.2146C28.4959 31.5 27.6223 31.5 25.875 31.5C24.1277 31.5 23.254 31.5 22.5649 31.2146C21.646 30.834 20.916 30.1039 20.5354 29.185Z" stroke="#C8CEC8" stroke-width="1.5" stroke-linecap="square" stroke-linejoin="round"/>
<path d="M20.5354 13.4351C20.25 12.7459 20.25 11.8723 20.25 10.125C20.25 8.37773 20.25 7.50408 20.5354 6.81494C20.916 5.89608 21.646 5.16606 22.5649 4.78545C23.254 4.5 24.1277 4.5 25.875 4.5C27.6223 4.5 28.4959 4.5 29.185 4.78545C30.1039 5.16606 30.834 5.89608 31.2146 6.81494C31.5 7.50408 31.5 8.37773 31.5 10.125C31.5 11.8723 31.5 12.7459 31.2146 13.4351C30.834 14.3539 30.1039 15.084 29.185 15.4646C28.4959 15.75 27.6223 15.75 25.875 15.75C24.1277 15.75 23.254 15.75 22.5649 15.4646C21.646 15.084 20.916 14.3539 20.5354 13.4351Z" stroke="#C8CEC8" stroke-width="1.5" stroke-linecap="square" stroke-linejoin="round"/>
<path d="M4.78545 29.185C4.5 28.4959 4.5 27.6223 4.5 25.875C4.5 24.1277 4.5 23.254 4.78545 22.5649C5.16606 21.646 5.89608 20.916 6.81494 20.5354C7.50408 20.25 8.37773 20.25 10.125 20.25C11.8723 20.25 12.7459 20.25 13.4351 20.5354C14.3539 20.916 15.084 21.646 15.4646 22.5649C15.75 23.254 15.75 24.1277 15.75 25.875C15.75 27.6223 15.75 28.4959 15.4646 29.185C15.084 30.1039 14.3539 30.834 13.4351 31.2146C12.7459 31.5 11.8723 31.5 10.125 31.5C8.37773 31.5 7.50408 31.5 6.81494 31.2146C5.89608 30.834 5.16606 30.1039 4.78545 29.185Z" stroke="#C8CEC8" stroke-width="1.5" stroke-linecap="square" stroke-linejoin="round"/>
<path d="M4.78545 13.4351C4.5 12.7459 4.5 11.8723 4.5 10.125C4.5 8.37773 4.5 7.50408 4.78545 6.81494C5.16606 5.89608 5.89608 5.16606 6.81494 4.78545C7.50408 4.5 8.37773 4.5 10.125 4.5C11.8723 4.5 12.7459 4.5 13.4351 4.78545C14.3539 5.16606 15.084 5.89608 15.4646 6.81494C15.75 7.50408 15.75 8.37773 15.75 10.125C15.75 11.8723 15.75 12.7459 15.4646 13.4351C15.084 14.3539 14.3539 15.084 13.4351 15.4646C12.7459 15.75 11.8723 15.75 10.125 15.75C8.37773 15.75 7.50408 15.75 6.81494 15.4646C5.89608 15.084 5.16606 14.3539 4.78545 13.4351Z" stroke="#C8CEC8" stroke-width="1.5" stroke-linecap="square" stroke-linejoin="round"/>
</svg>
