<svg width="36" height="36" viewBox="0 0 36 36" fill="none" xmlns="http://www.w3.org/2000/svg">
<path d="M31.9762 10.7121L31.2358 9.42719C30.6759 8.45544 30.396 7.96958 29.9196 7.77582C29.4432 7.58208 28.9044 7.73496 27.8269 8.04072L25.9966 8.55627C25.3087 8.71491 24.5869 8.62491 23.9589 8.30219L23.4535 8.01063C22.9149 7.66565 22.5006 7.157 22.2712 6.55911L21.7704 5.06304C21.441 4.07301 21.2763 3.578 20.8842 3.29486C20.4922 3.01172 19.9714 3.01172 18.9298 3.01172H17.2576C16.2162 3.01172 15.6954 3.01172 15.3033 3.29486C14.9113 3.578 14.7466 4.07301 14.4172 5.06304L13.9163 6.55911C13.687 7.157 13.2727 7.66565 12.7341 8.01063L12.2287 8.30219C11.6006 8.62491 10.8789 8.71491 10.191 8.55627L8.36062 8.04072C7.28311 7.73496 6.74437 7.58208 6.268 7.77582C5.79163 7.96958 5.51167 8.45544 4.95172 9.42719L4.21135 10.7121C3.68649 11.623 3.42405 12.0784 3.47499 12.5632C3.52591 13.0481 3.87724 13.4388 4.57989 14.2202L6.12645 15.9492C6.50445 16.4277 6.77281 17.2617 6.77281 18.0116C6.77281 18.7617 6.50454 19.5954 6.12649 20.0741L4.57989 21.8031C3.87724 22.5846 3.52593 22.9752 3.47499 23.4602C3.42405 23.945 3.68649 24.4004 4.21135 25.3112L4.95171 26.5961C5.51164 27.5678 5.79163 28.0538 6.268 28.2474C6.74437 28.4412 7.28313 28.2884 8.36065 27.9825L10.1909 27.467C10.8789 27.3083 11.6008 27.3984 12.229 27.7212L12.7342 28.0128C13.2728 28.3578 13.687 28.8663 13.9162 29.4642L14.4172 30.9605C14.7466 31.9505 14.9113 32.4455 15.3033 32.7287C15.6954 33.0117 16.2162 33.0117 17.2576 33.0117H18.9298C19.9714 33.0117 20.4922 33.0117 20.8842 32.7287C21.2763 32.4455 21.441 31.9505 21.7704 30.9605L22.2714 29.4642C22.5006 28.8663 22.9147 28.3578 23.4534 28.0128L23.9586 27.7212C24.5868 27.3984 25.3086 27.3083 25.9966 27.467L27.8269 27.9825C28.9044 28.2884 29.4432 28.4412 29.9196 28.2474C30.396 28.0538 30.6759 27.5678 31.2358 26.5961L31.9762 25.3112C32.5011 24.4004 32.7634 23.945 32.7126 23.4602C32.6616 22.9752 32.3103 22.5846 31.6077 21.8031L30.061 20.0741C29.683 19.5954 29.4147 18.7617 29.4147 18.0116C29.4147 17.2617 29.6832 16.4277 30.061 15.9492L31.6077 14.2202C32.3103 13.4388 32.6616 13.0481 32.7126 12.5632C32.7634 12.0784 32.5011 11.623 31.9762 10.7121Z" stroke="#C8CEC8" stroke-width="1.5" stroke-linecap="round"/>
<path d="M23.2793 18C23.2793 20.8995 20.9288 23.25 18.0293 23.25C15.1298 23.25 12.7793 20.8995 12.7793 18C12.7793 15.1005 15.1298 12.75 18.0293 12.75C20.9288 12.75 23.2793 15.1005 23.2793 18Z" stroke="#C8CEC8" stroke-width="1.5"/>
</svg>
