<svg width="36" height="36" viewBox="0 0 36 36" fill="none" xmlns="http://www.w3.org/2000/svg">
<path d="M22.5 13.5C22.5 11.0147 20.4854 9 18 9C15.5146 9 13.5 11.0147 13.5 13.5C13.5 15.9854 15.5146 18 18 18C20.4854 18 22.5 15.9854 22.5 13.5Z" stroke="#C8CEC8" stroke-width="1.5" stroke-linecap="round" stroke-linejoin="round"/>
<path d="M33 18C33 9.71572 26.2842 3 18 3C9.71572 3 3 9.71572 3 18C3 26.2842 9.71572 33 18 33C26.2842 33 33 26.2842 33 18Z" stroke="#C8CEC8" stroke-width="1.5" stroke-linecap="round" stroke-linejoin="round"/>
<path d="M25.5 25.5C25.5 21.3579 22.1421 18 18 18C13.8579 18 10.5 21.3579 10.5 25.5" stroke="#C8CEC8" stroke-width="1.5" stroke-linecap="round" stroke-linejoin="round"/>
</svg>
